<?xml version="1.0" encoding="utf-8"?>
<!-- Generator: Adobe Illustrator 16.0.0, SVG Export Plug-In . SVG Version: 6.00 Build 0)  -->
<!DOCTYPE svg PUBLIC "-//W3C//DTD SVG 1.1//EN" "http://www.w3.org/Graphics/SVG/1.1/DTD/svg11.dtd">
<svg version="1.1" id="Layer_1" xmlns="http://www.w3.org/2000/svg" xmlns:xlink="http://www.w3.org/1999/xlink" x="0px" y="0px"
	 width="500px" height="500px" viewBox="0 0 500 500" enable-background="new 0 0 500 500" xml:space="preserve">
<g>
	<path fill="#FFFFFF" d="M496,4v492H4V4H496 M500,0H0v500h500V0L500,0z"/>
</g>
<g>
	<path fill="#FFFFFF" d="M97.754,342.201c10.4,6.4,26,13.2,43.2,13.2c30.399,0,44.799-16.399,44.799-36.399
		c0-21.199-12.8-32.399-40.399-43.6c-31.6-12-48.799-29.199-48.799-52.399c0-28,22-51.999,59.199-51.999
		c17.6,0,32.799,5.2,42.399,12l-7.2,15.6c-6.8-4.8-19.2-11.6-38.399-11.6c-24.399,0-37.199,15.6-37.199,33.2
		c0,20,13.6,28.399,39.599,39.199c31.2,12.4,49.6,28,49.6,57.199c0,32.801-25.6,54.8-64.799,54.8c-18.4,0-36-5.2-48.799-13.2
		L97.754,342.201z"/>
	<path fill="#FFFFFF" d="M234.548,83.006h19.2v128.398h0.8c12.8-24.8,36.399-40.399,70.399-40.399
		c48.399,0,81.998,40.799,81.998,98.398c0,68.399-43.599,102.398-85.599,102.398c-31.199,0-53.599-12.799-68.799-38.799h-0.8
		l-1.6,34.399h-17.2c1.2-13.6,1.6-30.399,1.6-44.8V83.006z M253.748,293.402c0,4.4,0.4,9.2,1.6,14
		c8.4,29.199,33.2,48.399,63.199,48.399c43.999,0,69.199-35.999,69.199-85.999c0-43.999-24-82.799-67.599-82.799
		c-28,0-54.8,19.2-63.999,51.199c-1.2,4.8-2.4,10-2.4,16.8V293.402z"/>
</g>
<g>
</g>
<g>
</g>
<g>
</g>
<g>
</g>
<g>
</g>
<g>
</g>
<g>
</g>
<g>
</g>
<g>
</g>
<g>
</g>
<g>
</g>
<g>
</g>
<g>
</g>
<g>
</g>
<g>
</g>
</svg>
