<?xml version="1.0" encoding="utf-8"?>
<!-- Generator: Adobe Illustrator 16.0.0, SVG Export Plug-In . SVG Version: 6.00 Build 0)  -->
<!DOCTYPE svg PUBLIC "-//W3C//DTD SVG 1.1//EN" "http://www.w3.org/Graphics/SVG/1.1/DTD/svg11.dtd">
<svg version="1.1" id="Layer_1" xmlns="http://www.w3.org/2000/svg" xmlns:xlink="http://www.w3.org/1999/xlink" x="0px" y="0px"
	 width="500px" height="500px" viewBox="0 0 500 500" enable-background="new 0 0 500 500" xml:space="preserve">
<path fill-rule="evenodd" clip-rule="evenodd" fill="#FFFFFF" d="M501.348,85.202c-0.336-8.235-1.248-16.454-4.735-24.185
	c-7.002-15.524-16.242-29.282-29.81-39.913c-12.643-9.904-26.066-17.626-42.715-18.317C421.201,2.668,418.116,3,415.299,2
	C305.597,2,195.896,2,86.194,2c-12.708,1-25.295,2.542-36.625,9.447c-5.769,3.515-11.381,7.178-16.339,11.667
	C17.398,37.447,4.922,53.876,2.321,75.979C1.76,80.745,2,85.563,1,90.299c0,107.463,0,214.925,0,322.388
	c1,1.544,0.492,3.267,0.612,4.908c0.496,6.817,0.501,13.785,2.675,20.287c10.059,30.078,42.464,64.22,86.386,63.984
	c107.06-0.574,214.132-0.124,321.194-0.293c9.759-0.015,19.6-0.626,28.955-4.446c18.453-7.534,33.807-19.002,44.971-35.535
	c7.774-11.514,14.414-23.711,15.2-38.081c0.526-9.631,1.067-19.266,1.065-28.921c-0.012-96.618-0.014-193.235,0.011-289.853
	C502.071,98.214,501.612,91.707,501.348,85.202z M359.244,138.403c0.24-12.104,0.085-24.217,0.085-36.326
	c0-12.295,0.117-24.593-0.071-36.886c-0.056-3.688,0.734-5.233,4.857-5.202c24.404,0.179,48.81,0.176,73.214,0.001
	c4.062-0.029,4.929,1.402,4.906,5.151c-0.142,24.591-0.18,49.184,0.028,73.773c0.037,4.352-1.438,5.226-5.445,5.198
	c-24.031-0.168-48.065-0.21-72.096,0.027C360.11,144.186,359.16,142.604,359.244,138.403z M251.979,164.318
	c46.6,0.136,86.529,39.479,86.08,87.389c0.311,47.505-39.199,87.919-88.611,86.964c-45.016-0.871-84.743-36.364-85.319-86.419
	C163.567,203.427,202.929,164.174,251.979,164.318z M450.905,407.465c-0.175,20.815-16.969,38.924-38.072,43.312
	c-4.771,0.992-9.538,1.104-14.358,1.101c-49.052-0.02-98.104-0.013-147.158-0.013c-50.357,0-100.717,0.003-151.074-0.001
	c-23.786-0.002-43.646-15.916-48.504-38.923c-0.341-1.614-0.237-3.336-0.237-5.008c-0.01-66.771,0.036-133.543-0.103-200.314
	c-0.011-4.84,0.889-6.734,6.306-6.639c19.951,0.352,39.912,0.13,59.869,0.146c6.189,0.005,6.299,0.077,4.122,6.194
	c-5.316,14.941-7.834,30.36-7.467,46.165c0.725,31.209,10.516,59.205,30.151,83.684c17.524,21.847,39.751,36.79,66.317,45.172
	c21.156,6.675,42.706,7.306,64.637,3.739c22.404-3.644,42.399-12.602,59.978-26.453c26.291-20.714,43.019-47.675,49.888-80.66
	c2.047-9.827,3.253-19.783,3.009-29.661c-0.359-14.541-2.727-28.975-7.819-42.725c-1.563-4.217-1.522-5.63,3.626-5.566
	c20.7,0.255,41.405,0.195,62.106,0.027c3.858-0.031,5.084,1.021,5.077,4.993C451.086,273.178,451.473,340.326,450.905,407.465z"/>
</svg>
