<?xml version="1.0" encoding="utf-8"?>
<!-- Generator: Adobe Illustrator 16.0.0, SVG Export Plug-In . SVG Version: 6.00 Build 0)  -->
<!DOCTYPE svg PUBLIC "-//W3C//DTD SVG 1.1//EN" "http://www.w3.org/Graphics/SVG/1.1/DTD/svg11.dtd">
<svg version="1.1" id="Layer_1" xmlns="http://www.w3.org/2000/svg" xmlns:xlink="http://www.w3.org/1999/xlink" x="0px" y="0px"
	 width="500px" height="500px" viewBox="0 0 500 500" enable-background="new 0 0 500 500" xml:space="preserve">
<path fill-rule="evenodd" clip-rule="evenodd" fill="#AD997C" d="M500.45,33.978c0-0.532-0.001-1.063,0-1.594
	c0.031-14.106-7.615-22.949-19.396-29.283c-3.272-1.759-7.111-1.1-10.512-2.1C323.797,1,177.052,1,30.306,1
	c-1.469,0-3.053,0.445-4.6,0.65c-4.13,0.545-7.667,1.959-11.079,4.447C6.647,11.913,1,19.2,1,29.255C1,176.532,1,323.81,1,471.087
	c0,1.468,0.483,3.065,0.792,4.594c2.272,11.257,9.817,17.956,19.731,22.394c2.754,1.232,5.914,0.925,8.783,1.925
	c146.746,0,293.491,0,440.237,0c3.4-1,7.246-0.66,10.512-2.43c12.049-6.535,19.444-15.948,19.437-30.395
	C500.424,322.792,500.45,178.359,500.45,33.978z M152.322,413.655c0.004,3.655-1.098,4.806-4.786,4.781
	c-22.053-0.148-44.108-0.163-66.161,0.012c-3.945,0.031-4.893-1.318-4.881-5.034c0.114-36.003,0.068-72.007,0.069-108.011
	c0.001-35.604-0.004-71.21,0.007-106.814c0.001-5.161,0.039-5.17,5.255-5.17c21.921-0.004,43.843,0.074,65.762-0.079
	c3.638-0.025,4.739,0.986,4.733,4.693C152.224,269.906,152.232,341.781,152.322,413.655z M118.565,161.754
	c-1.458,0.064-2.91,0.256-4.137,0.368c-16.404-0.487-29.614-6.183-37.683-21.13c-10.623-19.679-1.076-45.466,19.956-52.99
	c16.028-5.733,31.598-5.039,45.699,5.411c8.401,6.225,12.817,14.994,14.014,25.353C159.336,144.057,140.261,160.795,118.565,161.754
	z M424.278,412.695c0.055,5.653,0.001,5.661-5.726,5.662c-21.4,0.003-42.801,0.003-64.201,0c-5.762-0.001-5.765-0.008-5.771-5.612
	c-0.042-40.806,0.079-81.613-0.229-122.417c-0.083-11.109-2.798-21.835-9.614-30.994c-6.934-9.316-16.835-12.509-27.946-12.486
	c-22.54,0.047-40.252,16.861-41.279,39.41c-1.161,25.502-0.277,51.03-0.454,76.545c-0.117,16.747,0.006,33.496-0.051,50.244
	c-0.018,5.267-0.127,5.276-5.229,5.277c-21.667,0.005-43.333-0.099-64.998,0.1c-4.08,0.037-5.094-1.145-5.076-5.163
	c0.159-36.019,0.093-72.038,0.093-108.058c0.458-35.751,1.319-71.512-0.041-107.252c-0.144-3.773,1.062-4.622,4.631-4.598
	c22.063,0.149,44.129,0.148,66.193,0.002c3.464-0.023,4.68,0.875,4.538,4.45c-0.289,7.3-0.17,14.616-0.18,21.925
	c-0.001,1.153-0.443,2.86,0.733,3.268c1.498,0.52,2.053-1.243,2.78-2.278c11.036-15.713,25.625-26.448,44.473-30.631
	c16.053-3.563,32.087-2.817,47.956,1.739c10.753,3.088,20.491,8.147,28.801,15.48c9.993,8.818,17.14,19.817,21.886,32.299
	c5.185,13.636,7.514,27.802,8.028,42.356C425.14,325.536,423.852,369.12,424.278,412.695z"/>
</svg>
