<?xml version="1.0" encoding="utf-8"?>
<!-- Generator: Adobe Illustrator 16.0.0, SVG Export Plug-In . SVG Version: 6.00 Build 0)  -->
<!DOCTYPE svg PUBLIC "-//W3C//DTD SVG 1.1//EN" "http://www.w3.org/Graphics/SVG/1.1/DTD/svg11.dtd">
<svg version="1.1" id="Layer_1" xmlns="http://www.w3.org/2000/svg" xmlns:xlink="http://www.w3.org/1999/xlink" x="0px" y="0px"
	 width="500px" height="405.891px" viewBox="0 0 500 405.891" enable-background="new 0 0 500 405.891" xml:space="preserve">
<g>
	<path fill-rule="evenodd" clip-rule="evenodd" fill="#FFFFFF" d="M172.701,405.891c-9.789,0-19.579,0-29.368,0
		c-2.945-0.54-5.941-0.329-8.895-0.372c-20.213-0.299-39.731-4.601-59.027-10.104c-19.359-5.521-37.843-13.256-55.622-22.686
		c-5.607-2.974-11.089-6.166-16.491-9.498c-1.205-0.742-2.234-1.63-2.859-2.926c0-0.293,0-0.585,0-0.877
		c0.624-0.808,1.45-0.797,2.371-0.688c7.184,0.842,14.414,1.125,21.627,1.082c6.553-0.039,13.118-0.188,19.669-0.854
		c9.317-0.945,18.524-2.439,27.638-4.547c13.28-3.07,26.083-7.528,38.489-13.174c12.412-5.649,24.027-12.638,35.099-20.563
		c0.753-0.539,1.653-0.933,2.132-2.027c-2.842-0.52-5.66-0.638-8.437-1.047c-20.042-2.951-37.709-11.072-53.037-24.296
		c-13.499-11.646-23.274-25.88-29.483-42.577c-0.381-1.026-0.77-2.058-0.969-3.138c-0.327-1.769,0.469-2.651,2.276-2.463
		c2.757,0.288,5.481,0.819,8.25,1.064c9.654,0.854,19.245,0.521,28.771-1.327c0.973-0.188,1.944-0.431,2.932-0.28
		c-5.552-1.083-10.808-3.032-15.974-5.256c-12.985-5.591-24.342-13.524-34.069-23.779c-13.066-13.775-21.721-29.911-26.012-48.418
		c-1.474-6.359-1.996-12.823-2.577-19.288c-0.104-1.163-0.079-2.338,0.007-3.505c0.183-2.473,1.215-3.143,3.482-2.033
		c5.516,2.7,11.063,5.292,16.939,7.146c6.292,1.985,12.715,3.309,19.249,4.133c0.844,0.106,1.712,0.235,2.737,0.022
		c-1.944-1.937-4.113-3.418-6.065-5.147c-18.699-16.556-30.156-37.108-34.181-61.769c-1.084-6.643-1.594-13.346-1.303-20.068
		c0.709-16.374,4.779-31.854,12.682-46.27c0.283-0.516,0.599-1.007,0.978-1.451c1.076-1.259,2.226-1.355,3.317-0.08
		c4.461,5.215,9.011,10.345,13.666,15.391c3.173,3.44,6.413,6.813,9.842,9.977c4.879,4.502,9.745,9.023,14.87,13.256
		c13.094,10.813,26.927,20.549,41.662,29.005c16.52,9.48,33.796,17.298,51.849,23.345c16.236,5.438,32.843,9.4,49.795,11.906
		c7.439,1.1,14.921,1.768,22.396,2.509c2.667,0.265,3.391-0.414,2.913-3.05c-1.148-6.341-1.726-12.765-1.651-19.162
		c0.083-7.056,0.719-14.117,2.237-21.075c3.998-18.322,12.166-34.436,24.816-48.325c13.971-15.342,31.011-25.486,51.017-30.782
		c4.489-1.189,9.103-1.209,13.677-1.609c0.71-0.062,1.458,0.223,2.13-0.214c6.575,0,13.15,0,19.725,0
		c3.029,0.415,6.088,0.418,9.128,0.716c8.221,0.803,15.856,3.609,23.321,6.885c11.683,5.127,22.094,12.178,31.04,21.315
		c1.371,1.399,2.826,1.768,4.747,1.353c14.116-3.046,27.737-7.561,40.905-13.484c5.935-2.67,11.718-5.616,17.349-8.87
		c0.379-0.219,0.773-0.413,1.172-0.594c0.875-0.395,1.771-0.837,2.665-0.094c0.985,0.82,0.663,1.844,0.318,2.823
		c-4.58,13.035-11.377,24.74-20.579,35.098c-4.93,5.549-10.421,10.407-16.311,14.863c-1.277,0.966-2.564,1.94-3.401,2.194
		c6.015-1.14,12.793-2.346,19.489-3.991c10.525-2.586,20.728-6.095,30.716-10.266c0.471-0.197,0.921-0.453,1.422-0.566
		c1.603-0.363,2.242,0.243,1.856,1.825c-0.293,1.202-0.708,2.349-1.441,3.397c-8.482,12.135-18.205,23.202-28.999,33.307
		c-5.378,5.035-11,9.824-16.976,14.154c-1.96,1.421-2.636,3.152-2.383,5.463c0.989,9.045,0.037,18.065-0.403,27.091
		c-0.458,9.411-1.631,18.749-3.16,28.037c-3.2,19.44-8.326,38.373-15.239,56.822c-4.103,10.951-8.735,21.678-14.075,32.075
		c-10.611,20.665-23.295,39.961-38.327,57.711c-7.47,8.82-15.465,17.141-23.889,25.011c-15.471,14.453-32.422,26.967-50.845,37.453
		c-17.391,9.899-35.617,17.88-54.72,23.828c-16.278,5.069-32.868,8.733-49.798,10.824c-8.124,1.003-16.293,1.053-24.455,1.301
		C174.268,405.706,173.449,405.442,172.701,405.891z"/>
</g>
</svg>
